<?xml version="1.0" standalone="no"?>
<!DOCTYPE svg PUBLIC "-//W3C//DTD SVG 20010904//EN"
 "http://www.w3.org/TR/2001/REC-SVG-20010904/DTD/svg10.dtd">
<svg version="1.0" xmlns="http://www.w3.org/2000/svg"
 width="1161.000000pt" height="1280.000000pt" viewBox="0 0 1161.000000 1280.000000"
 preserveAspectRatio="xMidYMid meet">
<g transform="translate(0.000000,1280.000000) scale(0.100000,-0.100000)"
fill="#000000" stroke="none">
<path d="M6452 12767 c-20 -24 -111 -226 -152 -340 -23 -61 -56 -134 -75 -162
-18 -27 -42 -69 -54 -93 -60 -118 -325 -386 -432 -437 -35 -17 -37 -17 -75 8
-55 37 -100 51 -281 88 -168 35 -314 43 -440 25 -100 -14 -105 -39 -22 -95 69
-47 137 -125 179 -205 42 -80 36 -90 -55 -82 -155 13 -369 128 -521 280 -78
78 -166 198 -193 264 -16 39 -33 40 -60 6 -51 -65 -69 -198 -46 -344 31 -199
30 -187 12 -171 -24 20 -70 105 -102 189 -29 78 -46 89 -80 52 -15 -17 -17
-30 -11 -100 4 -44 11 -93 16 -109 15 -52 -1 -56 -210 -56 -146 0 -191 3 -204
14 -28 23 -41 0 -25 -44 22 -59 79 -115 183 -179 53 -33 96 -63 96 -68 0 -11
-31 -16 -130 -22 -322 -19 -679 -269 -776 -544 -36 -103 -31 -293 9 -279 6 2
35 39 63 83 110 170 196 232 335 242 38 2 69 1 69 -3 0 -4 -36 -45 -80 -92
-67 -72 -90 -106 -145 -217 -75 -150 -108 -259 -126 -407 -25 -222 24 -574 81
-574 8 0 19 14 24 30 50 164 133 349 192 432 83 117 216 229 354 298 127 64
330 131 330 109 0 -3 -32 -59 -71 -126 -203 -342 -301 -689 -316 -1113 l-6
-180 -57 -70 c-76 -92 -152 -211 -202 -312 -22 -46 -44 -86 -50 -89 -13 -8
-89 66 -227 221 -321 360 -539 667 -785 1105 l-87 155 35 75 c42 92 44 97 56
192 24 196 -53 444 -215 688 l-47 71 7 127 c12 233 48 363 166 609 37 77 78
173 90 213 66 218 -54 416 -241 398 -72 -7 -150 -49 -229 -123 -213 -201 -331
-525 -331 -907 0 -98 -2 -118 -15 -118 -18 0 -199 102 -285 160 -91 62 -178
100 -228 100 -152 0 -261 -201 -193 -354 11 -27 21 -54 21 -60 0 -6 -20 -24
-45 -39 -123 -78 -185 -226 -140 -334 8 -19 15 -41 15 -48 0 -6 -26 -19 -58
-28 -72 -21 -157 -69 -179 -103 -37 -57 -28 -75 147 -314 l77 -105 -4 -105
c-6 -131 12 -185 93 -280 30 -36 88 -114 128 -175 40 -60 94 -130 120 -153 95
-88 231 -124 385 -103 l89 12 78 -39 c195 -99 411 -247 574 -392 192 -173 737
-816 805 -951 21 -40 22 -49 10 -66 -57 -81 -441 -744 -491 -848 -105 -216
-144 -362 -144 -538 0 -125 12 -198 52 -299 l29 -78 -65 -162 c-74 -185 -102
-284 -117 -413 -22 -199 28 -479 151 -839 l51 -149 -10 -104 c-21 -228 27
-454 149 -709 101 -210 179 -316 380 -514 97 -96 199 -192 226 -213 27 -21 89
-68 139 -105 49 -37 91 -75 93 -84 4 -21 5 -21 -211 -49 -92 -12 -166 -24
-164 -26 3 -2 84 1 182 7 123 7 182 7 189 0 6 -6 6 -13 1 -19 -6 -5 -116 -16
-245 -26 -129 -9 -271 -20 -315 -25 -74 -8 -72 -8 35 -4 63 2 206 9 318 16
111 6 204 9 207 6 9 -8 -5 -36 -21 -42 -8 -3 -74 -10 -147 -16 -276 -22 -1186
-99 -1272 -109 -90 -9 -390 -92 -410 -113 -7 -7 16 -8 75 -4 281 19 525 28
593 22 43 -4 77 -10 74 -12 -2 -3 -57 -9 -122 -15 -65 -5 -124 -15 -131 -22
-7 -7 -20 -18 -29 -25 -9 -8 -84 -22 -167 -33 -144 -18 -193 -29 -135 -29 14
0 28 -4 31 -9 6 -10 -109 -17 -412 -26 -174 -5 -242 -15 -242 -35 0 -3 52 -4
115 -2 102 4 156 -1 144 -13 -3 -2 -83 -11 -179 -20 -154 -15 -244 -35 -227
-51 2 -3 72 0 155 6 84 6 283 9 453 7 272 -4 304 -6 307 -20 2 -10 -6 -21 -20
-26 -13 -5 -230 -19 -483 -31 -253 -12 -478 -23 -501 -26 -28 -3 -50 -14 -69
-34 -16 -17 -26 -32 -23 -35 3 -3 207 4 454 15 547 24 574 25 574 6 0 -19 -44
-24 -385 -36 -157 -6 -309 -17 -345 -25 -36 -7 -114 -16 -175 -20 -168 -9
-174 -11 -191 -50 -13 -31 -20 -115 -10 -115 2 0 119 11 259 25 265 25 566 43
556 31 -8 -8 -200 -31 -504 -60 l-250 -24 215 -2 215 -3 -165 -9 c-287 -15
-312 -18 -308 -36 3 -16 40 -17 445 -13 242 2 485 0 540 -5 l98 -8 -75 -7
c-41 -4 -275 -12 -520 -19 -245 -7 -447 -14 -449 -16 -2 -2 11 -21 28 -43 37
-46 160 -142 247 -192 l59 -33 390 2 c215 1 422 -2 460 -7 39 -4 60 -9 48 -10
-16 -1 -21 -6 -17 -16 5 -13 -40 -15 -371 -15 -268 0 -376 -3 -373 -11 5 -14
108 -58 275 -115 l136 -48 161 22 c231 32 321 40 591 52 342 15 755 -7 790
-42 7 -7 -10 -8 -50 -5 -243 24 -799 16 -1216 -18 -101 -8 -190 -15 -198 -15
-41 0 19 -23 157 -60 l152 -41 167 15 c445 41 855 67 842 52 -3 -4 -46 -11
-95 -17 -171 -19 -689 -69 -721 -69 -72 0 -35 -19 89 -45 111 -23 146 -27 218
-21 721 54 1727 74 1663 33 -14 -9 -320 -26 -465 -27 -152 0 -123 -16 35 -18
77 -2 142 -4 144 -6 2 -1 -171 -6 -384 -9 -214 -4 -399 -10 -412 -14 -18 -5
-22 -3 -16 7 6 10 -29 11 -186 5 -107 -4 -200 -10 -207 -14 -7 -4 62 -20 155
-36 160 -27 190 -29 618 -37 248 -4 833 -12 1300 -17 468 -6 965 -15 1105 -21
140 -5 707 -14 1260 -18 l1005 -9 202 24 c112 13 233 30 270 38 l68 14 -115
-4 c-208 -9 -2358 -13 -2245 -5 61 4 450 8 866 9 l756 1 -1 23 c-1 17 5 23 29
25 17 1 59 9 95 17 185 42 561 68 1200 85 l355 9 175 45 c96 25 216 59 265 75
l90 30 -280 -6 c-352 -8 -373 -8 -470 -4 -163 7 -12 19 430 36 495 19 501 20
690 110 l90 43 -261 1 c-422 2 -771 25 -674 45 59 12 487 37 793 47 321 10
333 11 367 33 46 31 132 107 127 113 -3 2 -97 -3 -210 -12 -112 -9 -220 -15
-238 -13 -49 4 141 36 299 49 190 16 190 16 212 52 l20 32 -168 6 c-155 5
-616 -3 -1014 -17 -112 -5 -168 -3 -168 4 0 14 18 19 132 36 118 18 433 36
621 36 94 0 133 4 150 14 37 24 154 37 317 35 103 -1 155 2 158 9 2 7 -54 12
-177 14 -98 2 -183 6 -187 11 -4 4 -2 13 4 19 9 9 68 14 183 16 133 3 168 7
157 16 -10 9 -89 10 -328 3 -325 -9 -550 -3 -532 15 5 5 126 13 268 19 591 21
574 20 563 40 -9 18 -25 19 -202 19 -106 0 -248 5 -317 11 -69 6 -145 12 -170
12 -25 1 -47 7 -50 12 -12 23 237 60 485 71 139 6 139 6 116 25 -21 17 -43 19
-205 20 -203 1 -208 5 -26 19 l125 9 -135 -5 c-74 -2 -208 -7 -297 -10 -198
-8 -350 12 -305 40 19 11 235 29 442 35 l225 6 -60 31 -60 32 -237 4 c-217 3
-262 8 -246 24 4 3 82 10 174 15 92 5 169 11 171 13 2 2 -44 23 -104 46 -104
41 -114 43 -258 51 -82 4 -281 8 -441 8 -250 1 -293 3 -304 16 -9 11 -10 19
-3 26 7 7 116 13 287 16 152 4 279 9 281 13 15 25 -605 157 -1074 229 -129 20
-236 41 -238 46 -1 6 18 19 43 29 54 22 138 102 178 169 39 68 73 164 108 306
21 88 36 130 49 139 31 21 47 63 59 153 7 48 20 98 31 116 11 17 26 62 34 100
19 89 31 430 17 503 l-10 55 41 37 c48 45 63 47 70 9 15 -72 110 -130 229
-139 58 -4 74 -1 120 22 48 24 58 34 107 121 110 196 144 325 144 545 0 158
-13 235 -65 400 -35 112 -120 292 -172 369 l-37 54 17 76 c51 237 17 523 -91
758 -124 269 -402 536 -640 614 -38 12 -88 31 -111 41 -22 10 -45 18 -51 18
-15 0 -26 31 -98 285 -83 291 -222 846 -315 1260 -151 671 -184 786 -254 877
-21 29 -26 50 -36 168 -28 347 -100 620 -236 910 -64 134 -96 186 -180 295
-122 159 -287 291 -437 349 -44 17 -82 36 -83 41 -2 6 22 25 54 43 81 47 188
150 176 169 -5 9 -43 25 -84 37 -89 27 -199 72 -219 91 -11 11 -10 22 9 71
108 289 152 539 134 764 -6 87 -7 90 -25 74 -10 -9 -28 -37 -41 -63 -12 -25
-47 -71 -78 -102 -59 -60 -296 -223 -310 -214 -5 3 -4 19 2 36 17 48 4 250
-22 339 -29 100 -75 184 -121 220 -42 34 -43 34 -57 17z m4392 -11316 c6 -9
-19 -14 -194 -36 -136 -17 -259 -20 -244 -5 13 13 138 30 289 39 66 5 125 9
132 10 6 0 14 -3 17 -8z m-2725 -95 c-2 -2 -62 -6 -134 -9 -73 -3 -117 -2
-100 3 29 7 242 14 234 6z m-1936 -713 c-7 -2 -19 -2 -25 0 -7 3 -2 5 12 5 14
0 19 -2 13 -5z"/>
<path d="M2628 2493 c18 -2 45 -2 60 0 15 2 0 4 -33 4 -33 0 -45 -2 -27 -4z"/>
<path d="M2543 2483 c9 -2 23 -2 30 0 6 3 -1 5 -18 5 -16 0 -22 -2 -12 -5z"/>
<path d="M1335 2165 l-50 -23 37 -1 c40 -1 360 38 367 45 2 2 -65 4 -150 3
-140 0 -158 -2 -204 -24z"/>
<path d="M10795 1570 c11 -5 79 -8 150 -8 100 1 118 2 80 8 -70 11 -256 11
-230 0z"/>
<path d="M3483 753 c15 -2 39 -2 55 0 15 2 2 4 -28 4 -30 0 -43 -2 -27 -4z"/>
<path d="M8627 739 c-287 -13 -178 -22 196 -16 213 4 375 11 385 16 20 12
-334 12 -581 0z"/>
<path d="M3410 610 c69 -11 714 -23 821 -14 191 15 48 23 -406 22 -253 0 -440
-4 -415 -8z"/>
<path d="M4460 600 c-58 -4 -135 -12 -171 -18 -37 -5 -142 -9 -234 -7 -92 1
-180 -1 -194 -5 -20 -6 -11 -9 39 -11 119 -4 144 -6 225 -17 242 -34 331 -34
1005 3 146 8 348 18 450 22 308 12 123 24 -445 27 -275 2 -516 5 -535 8 -19 3
-82 2 -140 -2z"/>
<path d="M6610 551 c0 -19 930 -32 1040 -14 42 7 -22 11 -264 16 -436 10 -776
9 -776 -2z"/>
<path d="M5810 533 c-63 -2 -262 -10 -441 -18 -180 -8 -344 -15 -365 -16 l-39
-1 35 -8 c19 -4 143 -11 275 -14 182 -5 271 -3 370 8 163 19 374 35 580 45
l160 8 -230 -1 c-126 0 -282 -2 -345 -3z"/>
<path d="M6223 473 c26 -2 68 -2 95 0 26 2 4 3 -48 3 -52 0 -74 -1 -47 -3z"/>
</g>
</svg>
