<?xml version="1.0" encoding="UTF-8" standalone="no"?>
<!-- Created with Inkscape (http://www.inkscape.org/) -->

<svg
   xmlns:dc="http://purl.org/dc/elements/1.1/"
   xmlns:cc="http://creativecommons.org/ns#"
   xmlns:rdf="http://www.w3.org/1999/02/22-rdf-syntax-ns#"
   xmlns:svg="http://www.w3.org/2000/svg"
   xmlns="http://www.w3.org/2000/svg"
   xmlns:sodipodi="http://sodipodi.sourceforge.net/DTD/sodipodi-0.dtd"
   xmlns:inkscape="http://www.inkscape.org/namespaces/inkscape"
   id="svg2"
   version="1.1"
   inkscape:version="0.48.4 r9939"
   width="564.5174"
   height="242.32124"
   xml:space="preserve"
   sodipodi:docname="document.pdf"><metadata
     id="metadata8"><rdf:RDF><cc:Work
         rdf:about=""><dc:format>image/svg+xml</dc:format><dc:type
           rdf:resource="http://purl.org/dc/dcmitype/StillImage" /><dc:title></dc:title></cc:Work></rdf:RDF></metadata><defs
     id="defs6"><clipPath
       clipPathUnits="userSpaceOnUse"
       id="clipPath16"><path
         d="m 0,420.945 595.28,0 L 595.28,0 0,0 0,420.945 z"
         id="path18"
         inkscape:connector-curvature="0" /></clipPath></defs><sodipodi:namedview
     pagecolor="#ffffff"
     bordercolor="#666666"
     borderopacity="1"
     objecttolerance="10"
     gridtolerance="10"
     guidetolerance="10"
     inkscape:pageopacity="0"
     inkscape:pageshadow="2"
     inkscape:window-width="1920"
     inkscape:window-height="1031"
     id="namedview4"
     showgrid="false"
     fit-margin-top="0"
     fit-margin-left="0"
     fit-margin-right="0"
     fit-margin-bottom="0"
     inkscape:zoom="0.45909281"
     inkscape:cx="47.095686"
     inkscape:cy="78.816914"
     inkscape:window-x="-4"
     inkscape:window-y="-4"
     inkscape:window-maximized="1"
     inkscape:current-layer="g10" /><g
     id="g10"
     inkscape:groupmode="layer"
     inkscape:label="document"
     transform="matrix(1.25,0,0,-1.25,-89.79125,405.37725)"><g
       id="g12"><g
         id="g14"
         clip-path="url(#clipPath16)"><g
           id="g20"
           transform="translate(150.5635,168.0918)"><path
             d="m 0,0 0.268,-1.275 -0.008,0 12.416,-7.324 3.139,-1.824 -1.715,4.42 c 10.241,-3.02 18.583,-3.189 24.13,-0.575 0,0 -0.006,0 -0.006,-0.005 C 28.567,-9.436 4.625,-1.368 0,0 m -37.93,57.815 0,0 -10.624,-8.081 7.626,16.769 0,0.014 c 1.211,-2.572 2.23,-5.51 3.008,-8.702 l -0.01,0 z m 49.314,15.063 -33.178,-8.093 0,0.036 0.01,-0.036 64.806,28.043 -53.409,-6.543 28.589,20.883 -30.636,-11.96 4.626,9.283 -21.915,-15.785 -0.185,0.334 31.069,67.17 -50.522,-59.8 -0.316,32.605 -18.538,-43.581 -0.964,12.847 -9.133,-33.428 0.017,0.008 0,-0.008 c 0,0 1.232,0.91 2.887,1.409 0.134,0.036 0.266,0.069 0.4,0.107 0.017,0 0.033,0.014 0.053,0.014 0.134,0.029 0.267,0.059 0.4,0.082 0.017,0 0.036,0.014 0.063,0.014 0.136,0.024 0.266,0.042 0.419,0.052 l 0,0.015 c 0.143,0.012 0.284,0.018 0.418,0.03 l 0.088,0 c 0.133,0.012 0.279,0.012 0.429,0 0.01,0 0.017,0 0.051,-0.012 0.126,0 0.25,-0.006 0.384,-0.033 0.025,-0.01 0.043,-0.01 0.071,-0.01 0.146,-0.018 0.277,-0.042 0.41,-0.079 0.036,0 0.072,-0.011 0.088,-0.018 0.141,-0.036 0.284,-0.074 0.437,-0.126 3.125,-1.131 5.781,0 5.781,0 0,0 2.944,-1.89 2.944,-3.474 l -0.007,0 0,-0.007 c 0,0 -3.872,-0.226 -3.872,1.489 0,0 -4.951,1.757 -11.879,-0.809 l 14.611,-6.283 c -0.01,0.067 -0.78,2.787 0.063,3.733 0.268,0.327 0.739,0.442 1.471,0.194 0.267,-0.096 0.46,-0.073 0.581,0.045 1.136,1.17 -4.374,11.346 -4.374,11.346 0,0 -4.947,0.48 -9.228,-3.998 -0.285,-0.296 -0.58,-0.615 -0.854,-0.963 l 0,0.014 0,-0.014 c 0.437,0.763 1.824,2.974 4.141,4.89 1.387,1.164 3.124,2.209 5.192,2.798 0.567,1.359 -0.153,0.474 1.017,1.19 0.008,0 0.008,0.012 0.008,0.012 0.549,3.587 2.581,12.827 9.587,20.729 0.469,0.526 0.953,1.054 1.469,1.558 0,0 -1.796,-3.378 -1.796,-5.725 0.053,0.06 1.824,2.719 4.275,5.153 l 0,0.01 c 0,0 -0.03,-0.04 -0.065,-0.106 -0.456,-0.974 -3.795,-8.105 -3.446,-10.187 0.009,-0.019 0.016,-0.031 0.016,-0.05 l 6.752,6.187 c 0,0 -0.019,-0.012 -0.028,-0.019 -0.196,-0.268 -6.34,-8.577 -6.946,-11.425 l 0,-0.02 10.223,7.304 -0.009,-0.012 c -0.034,-0.059 -1.288,-1.807 -1.816,-2.766 -0.374,-0.688 -0.428,-0.919 -0.428,-0.99 l 0.016,-0.055 5.505,2.361 c 0,0 -0.238,-0.286 -0.622,-0.704 l -2.049,-2.082 -0.507,-0.534 -3.722,-3.764 -0.07,-0.086 -2.834,-2.879 -1.817,-1.851 c 0,0 -1.485,-1.548 -1.664,-2.349 -0.177,-0.789 0.66,-1.276 0.66,-1.276 l -0.01,0 c 0.757,-0.422 1.369,-1.075 1.728,-1.859 0.197,-0.471 0.309,-0.987 0.309,-1.54 0,-1.083 -0.443,-2.066 -1.185,-2.774 -0.728,-0.716 -1.753,-1.161 -2.881,-1.161 -1.028,0 -1.941,0.372 -2.655,0.968 0.124,-0.167 2.137,-2.699 5.832,-0.731 l 4.564,3.328 0.199,0.156 4.72,3.451 c 1.114,-1.315 2.166,-2.899 3.118,-4.694 -2.805,-2.665 -7.588,-7.287 -12.363,-12.341 -2.846,-3.005 -5.686,-6.183 -8.109,-9.184 l 1.703,8.001 0.14,0.66 c 0,0 -0.006,0 -0.006,-0.012 -0.02,-0.006 -0.03,-0.006 -0.043,-0.018 0,-0.008 -0.023,-0.02 -0.023,-0.02 -0.016,-0.009 -0.035,-0.009 -0.045,-0.036 -0.01,0 -0.023,-0.007 -0.023,-0.025 -0.02,-0.011 -0.048,-0.023 -0.065,-0.034 -0.009,-0.007 -0.016,-0.034 -0.045,-0.039 -0.016,-0.009 -0.043,-0.036 -0.067,-0.042 -0.015,-0.024 -0.03,-0.034 -0.057,-0.052 -0.019,-0.02 -0.034,-0.038 -0.072,-0.049 -0.026,-0.026 -0.043,-0.052 -0.071,-0.066 -0.025,-0.019 -0.053,-0.053 -0.081,-0.058 -0.024,-0.035 -0.053,-0.066 -0.076,-0.076 -0.039,-0.026 -0.066,-0.057 -0.101,-0.081 -0.026,-0.019 -0.053,-0.052 -0.076,-0.078 -0.038,-0.032 -0.083,-0.055 -0.11,-0.098 -0.045,-0.018 -0.062,-0.048 -0.107,-0.067 -0.026,-0.043 -0.071,-0.077 -0.117,-0.115 -0.024,-0.029 -0.071,-0.061 -0.098,-0.095 -0.046,-0.039 -0.097,-0.081 -0.134,-0.128 -0.036,-0.032 -0.059,-0.063 -0.106,-0.086 -0.034,-0.053 -0.087,-0.106 -0.15,-0.154 -0.038,-0.028 -0.063,-0.052 -0.089,-0.086 -0.029,-0.028 -0.062,-0.059 -0.1,-0.087 0,-0.012 -0.008,-0.012 -0.008,-0.012 -0.05,-0.048 -0.107,-0.111 -0.159,-0.167 -0.046,-0.029 -0.081,-0.077 -0.115,-0.119 -0.064,-0.048 -0.11,-0.104 -0.162,-0.154 -0.046,-0.043 -0.091,-0.094 -0.134,-0.133 -0.035,-0.055 -0.081,-0.096 -0.105,-0.128 -0.018,-0.015 -0.043,-0.041 -0.064,-0.061 0,-0.007 -0.017,-0.02 -0.036,-0.04 -0.033,-0.033 -0.063,-0.062 -0.098,-0.101 -0.046,-0.052 -0.088,-0.094 -0.134,-0.147 -0.009,-0.02 -0.016,-0.033 -0.035,-0.038 -0.018,-0.019 -0.033,-0.029 -0.052,-0.048 -0.024,-0.043 -0.055,-0.074 -0.091,-0.105 -0.053,-0.077 -0.105,-0.133 -0.176,-0.196 -0.046,-0.066 -0.101,-0.114 -0.144,-0.18 -0.052,-0.068 -0.124,-0.139 -0.178,-0.201 -0.053,-0.067 -0.103,-0.12 -0.154,-0.186 -0.069,-0.074 -0.121,-0.152 -0.193,-0.227 -0.045,-0.059 -0.1,-0.121 -0.156,-0.193 -0.058,-0.081 -0.119,-0.152 -0.192,-0.248 -0.052,-0.047 -0.097,-0.122 -0.152,-0.182 -0.067,-0.099 -0.142,-0.185 -0.212,-0.281 -0.056,-0.071 -0.099,-0.119 -0.135,-0.184 -0.088,-0.114 -0.177,-0.228 -0.266,-0.343 -0.03,-0.045 -0.075,-0.098 -0.098,-0.141 -0.124,-0.172 -0.258,-0.346 -0.377,-0.527 L -65.811,49.2 c -0.119,-0.175 -0.243,-0.346 -0.357,-0.522 -0.028,-0.051 -0.066,-0.11 -0.104,-0.165 -0.082,-0.133 -0.178,-0.267 -0.268,-0.408 -0.048,-0.066 -0.081,-0.133 -0.134,-0.201 -0.081,-0.133 -0.162,-0.252 -0.251,-0.385 -0.045,-0.081 -0.088,-0.153 -0.13,-0.227 -0.072,-0.134 -0.163,-0.27 -0.249,-0.403 -0.037,-0.081 -0.09,-0.16 -0.133,-0.245 -0.081,-0.134 -0.153,-0.275 -0.244,-0.409 -0.045,-0.071 -0.096,-0.167 -0.142,-0.248 -0.081,-0.157 -0.162,-0.291 -0.243,-0.434 -0.038,-0.081 -0.086,-0.171 -0.129,-0.262 -0.377,-0.691 -0.743,-1.407 -1.117,-2.181 l 0,-0.013 -1.879,-0.316 c 0.377,0.969 0.748,1.847 1.152,2.679 l -3.065,-4.314 3.065,0.3 c -2.621,-6.023 -4.544,-13.903 -4.544,-25.128 l 2.495,1.578 C -69.89,5.37 -59.561,-0.138 -59.561,-0.138 l -0.016,0.079 c 5.688,-3.724 12.615,-6.328 20.247,-7.361 1.059,-0.134 1.918,-0.212 2.111,-0.231 0.007,0 0.007,0 0.007,0.005 0.139,-0.017 0.261,-0.041 0.394,-0.041 4.133,-0.36 8.148,-0.212 11.988,0.348 -0.009,-0.145 -0.02,-0.293 -0.02,-0.441 0,-2.481 1.38,-4.523 3.137,-4.692 -3.609,-6.136 -6.53,-14.29 -6.54,-14.328 -0.138,-0.374 -0.427,-1.068 -0.718,-1.276 -0.89,-0.2 -0.961,-0.245 -1.943,-0.551 l 0.014,0.012 c -0.332,0.322 -3.181,0.856 -6.085,-0.234 0.007,-0.013 0.007,-0.013 0.024,-0.028 -1.643,-0.721 -3.241,-2.037 -4.351,-4.218 1.18,0.952 3.382,2.502 5.172,2.288 -2.121,-1.21 -5.787,-3.518 -6.208,-6.84 0,0 12.733,8.932 19.011,7.284 0,0 -0.913,-1.038 1.248,-4.897 l 0.985,3.589 c 1.133,3.483 -3.227,3.996 -5.061,4.069 0.009,0.027 0.009,0.04 0.009,0.043 0,0 0.202,0.559 0.557,1.482 1.082,2.789 3.599,8.954 6.353,13.354 0.05,0.094 0.086,0.192 0.113,0.283 l -0.513,0.71 c 0.004,0 0.372,0.401 0.569,0.696 0.365,0.577 0.871,1.558 0.88,2.853 0,1.017 -0.247,2.3 -0.974,3.893 l 1.632,0.756 c 0.088,-0.207 0.178,-0.401 0.263,-0.587 0.024,-0.071 0.047,-0.134 0.069,-0.189 0.05,-0.132 0.103,-0.266 0.148,-0.4 0.027,-0.06 0.049,-0.133 0.074,-0.2 0.045,-0.146 0.086,-0.279 0.135,-0.412 0.008,-0.041 0.035,-0.096 0.044,-0.144 l 9.319,2.815 -2.066,1.701 -0.014,0 -0.091,0.092 -0.047,0.036 -35.244,32.098 c 0.01,0 0.018,-0.017 0.018,-0.017 l -0.008,0.017 C -35.142,26.512 -23.712,20.972 -4.325,11.988 14.776,3.185 26.869,-1.943 33.109,-4.5 c 0.052,-0.034 0.109,-0.055 0.153,-0.074 l 0.009,0 c 0.907,-0.372 1.683,-0.685 2.338,-0.951 1.338,-0.524 2.588,-1.008 2.658,-1.038 0.104,0.059 0.23,0.092 0.337,0.148 l -71.255,48.87 44.035,30.423 z m -67.981,-5.445 c -0.291,-0.129 -0.593,-0.176 -0.906,-0.176 -0.982,0 -1.906,0.596 -2.306,1.571 -0.036,0.079 -0.082,0.174 -0.098,0.275 l -0.733,-0.244 c 0.616,-1.794 2.469,-2.776 4.142,-2.197 0.42,0.151 0.796,0.375 1.087,0.661 0.919,0.864 1.293,2.271 0.835,3.606 l -1.679,-0.573 c 0.105,-0.248 0.177,-0.514 0.177,-0.8 0,-0.248 -0.044,-0.473 -0.142,-0.687 l 0.766,-0.468 c -0.134,-0.201 -0.295,-0.4 -0.491,-0.567 -0.177,-0.168 -0.401,-0.301 -0.652,-0.401 m 10.687,-83.954 c 2.805,3.016 6.101,6.422 8.069,8.026 -0.554,0.047 -1.427,0.154 -2.376,0.298 -2.052,-1.87 -4.668,-4.602 -7.012,-7.106 -2.972,-3.206 -5.419,-6.006 -5.419,-6.02 -0.039,-0.024 -0.053,-0.073 -0.091,-0.108 -1.942,-0.534 -5.236,-1.44 -7.428,-2.037 -3.249,-0.901 -6.163,-0.679 -6.163,-2.804 0,0 -3.363,-1.804 -2.576,-4.492 0,0 6.745,5.389 12.517,6.302 0,0 -3.525,-2.295 -3.206,-5.402 0,0 4.752,7.11 10.303,2.797 0,0 -2.475,3.361 -1.443,5.21 0.886,1.006 2.723,3.072 4.825,5.336"
             style="fill:#db0d15;fill-opacity:1;fill-rule:nonzero;stroke:none"
             id="path22"
             inkscape:connector-curvature="0" /></g><g
           id="g24"
           transform="translate(89.917,236.9512)"><path
             d="m 0,0 0.739,0.243 c 0.017,-0.1 0.063,-0.195 0.099,-0.274 0.399,-0.976 1.323,-1.572 2.306,-1.572 0.312,0 0.615,0.047 0.906,0.176 0.492,0.2 0.883,0.554 1.142,0.969 L 4.427,0 c 0.097,0.209 0.141,0.448 0.141,0.696 0,0.286 -0.072,0.553 -0.176,0.801 L 6.07,2.069 C 6.679,0.283 5.822,-1.627 4.141,-2.204 2.469,-2.776 0.613,-1.804 0,0 M 18.968,-0.832 C 18.016,0.963 16.964,2.547 15.85,3.861 L 6.366,-3.085 c -3.828,-2.022 -5.848,0.747 -5.848,0.747 0.701,-0.6 1.636,-0.973 2.671,-0.973 2.251,0 4.06,1.775 4.067,3.936 0,0.546 -0.112,1.068 -0.318,1.528 -0.35,0.795 -0.972,1.449 -1.726,1.866 l 0.017,0.004 c 0,0 -0.837,0.488 -0.661,1.277 0.179,0.801 1.664,2.348 1.664,2.348 l -0.008,-0.005 4.66,4.736 0.069,0.086 4.23,4.298 2.048,2.082 c 0.384,0.418 0.613,0.692 0.613,0.692 l -5.512,-2.35 c 0,0 -0.105,0.06 0.429,1.045 0.535,0.978 1.825,2.779 1.825,2.779 L 4.354,13.707 c 0.59,2.867 6.983,11.451 6.983,11.451 L 4.585,18.979 C 4.132,21.133 8.079,29.316 8.079,29.316 5.594,26.852 3.805,24.149 3.805,24.149 c 0,2.362 1.789,5.74 1.789,5.74 C -2.606,21.686 -4.883,11.42 -5.455,7.602 -6.643,6.859 -5.913,7.764 -6.48,6.399 c -5.505,-1.555 -8.63,-6.465 -9.341,-7.687 4.467,5.512 10.09,4.961 10.09,4.961 0,0 6.711,-12.405 3.793,-11.404 -2.945,1.021 -1.535,-3.915 -1.535,-3.915 l -5.493,2.37 c 0.907,-1.794 2.688,-6.016 1.665,-10.41 -1.131,-1.716 -2.251,-3.811 -3.244,-6.392 l 1.88,0.315 c 0.367,0.787 0.732,1.503 1.097,2.19 0.052,0.088 0.11,0.174 0.148,0.26 0.073,0.145 0.154,0.284 0.243,0.428 0.046,0.087 0.098,0.18 0.143,0.261 0.079,0.134 0.148,0.267 0.233,0.4 0.054,0.093 0.107,0.172 0.144,0.253 0.086,0.134 0.157,0.27 0.249,0.394 0.042,0.084 0.085,0.155 0.13,0.222 0.081,0.133 0.17,0.267 0.251,0.396 0.038,0.071 0.076,0.139 0.133,0.205 0.077,0.134 0.171,0.267 0.268,0.4 0.038,0.063 0.062,0.122 0.105,0.172 0.114,0.177 0.238,0.348 0.357,0.515 0,0.008 0.015,0.02 0.015,0.026 0.119,0.182 0.243,0.347 0.362,0.516 0.038,0.041 0.076,0.098 0.112,0.146 0.089,0.122 0.17,0.229 0.258,0.35 0.045,0.065 0.088,0.112 0.144,0.172 0.063,0.096 0.132,0.193 0.204,0.293 0.062,0.06 0.107,0.119 0.15,0.182 0.067,0.086 0.134,0.167 0.201,0.248 0.049,0.059 0.112,0.119 0.156,0.185 0.073,0.082 0.124,0.153 0.187,0.228 0.058,0.058 0.101,0.121 0.153,0.18 0.062,0.075 0.121,0.146 0.186,0.208 0.043,0.06 0.098,0.115 0.143,0.172 0.059,0.076 0.123,0.133 0.166,0.2 0.056,0.047 0.101,0.115 0.154,0.163 0.056,0.059 0.106,0.114 0.169,0.175 0.045,0.063 0.088,0.096 0.133,0.151 0.065,0.06 0.113,0.112 0.169,0.179 0.037,0.034 0.088,0.088 0.134,0.143 0.043,0.05 0.099,0.105 0.162,0.153 0.035,0.038 0.07,0.078 0.116,0.119 0.051,0.057 0.109,0.12 0.159,0.167 0.046,0.029 0.069,0.072 0.107,0.095 0.089,0.091 0.159,0.165 0.239,0.244 0.047,0.024 0.071,0.055 0.107,0.086 0.036,0.047 0.088,0.09 0.134,0.128 0.026,0.034 0.074,0.067 0.097,0.096 0.046,0.038 0.091,0.071 0.118,0.114 0.044,0.02 0.061,0.05 0.107,0.068 0.026,0.042 0.071,0.066 0.109,0.097 0.024,0.027 0.05,0.06 0.076,0.078 0.036,0.025 0.062,0.056 0.101,0.081 0.024,0.01 0.053,0.041 0.076,0.077 0.029,0.004 0.057,0.039 0.081,0.057 0.029,0.015 0.045,0.04 0.072,0.067 0.038,0.01 0.052,0.029 0.072,0.048 0.026,0.019 0.042,0.029 0.056,0.052 0.025,0.007 0.051,0.033 0.068,0.043 0.028,0.005 0.035,0.031 0.045,0.038 0.016,0.012 0.045,0.024 0.064,0.034 0,0.019 0.014,0.026 0.024,0.026 0.009,0.026 0.029,0.026 0.045,0.036 0,0 0.022,0.012 0.022,0.019 0.014,0.012 0.023,0.012 0.043,0.019 0,0.012 0.007,0.012 0.007,0.012 l -0.141,-0.66 -1.703,-8.001 c 6.457,8.001 15.99,17.281 20.473,21.525 m 1.209,-76.182 c 1.683,-0.267 3.218,-0.408 3.218,-0.408 l 0.078,0.891 c 0,0 -1.502,0.133 -3.151,0.399 l -0.145,-0.882 z m 21.299,3.867 c 0.726,-1.593 0.973,-2.876 0.973,-3.893 -0.009,-1.295 -0.514,-2.276 -0.88,-2.854 C 41.372,-80.188 41.005,-80.59 41,-80.59 l 1.059,-1.452 c 0.113,0.073 2.182,1.636 2.182,5.002 0,1.31 -0.313,2.86 -1.139,4.648 l -1.626,-0.755 z m 57.454,-2.276 c 0,0 -23.864,8.954 -83.233,37.842 l 35.382,-32.227 0.015,0 c 3.17,1.317 5.4,2.251 9.812,-0.327 l -0.26,1.276 c 4.617,-1.369 28.649,-9.476 38.284,-6.564 m -79.211,73.067 -7.626,-16.769 10.624,8.081 c -0.769,3.191 -1.801,6.118 -2.998,8.688 M -6.204,-4.554 c 0,-1.715 3.872,-1.488 3.872,-1.488 0,1.576 -2.938,3.473 -2.938,3.473 0,0 -2.656,-1.123 -5.796,0 -1.258,0.455 -2.575,0.307 -3.696,-0.036 -1.488,-0.992 -3.322,-2.769 -3.322,-2.769 6.929,2.578 11.88,0.82 11.88,0.82"
             style="fill:#000000;fill-opacity:1;fill-rule:nonzero;stroke:none"
             id="path26"
             inkscape:connector-curvature="0" /></g><g
           id="g28"
           transform="translate(355.2637,219.6338)"><path
             d="m 0,0 0.102,0.092 3.625,3.701 0.533,0.561 -15.465,0 0,-26.715 11.293,0 0.105,0.089 3.534,3.702 0.525,0.546 -10.875,0 0,8.295 3.342,0 0.088,0.1 3.675,3.688 0.549,0.56 -7.654,0 0,5.381 L 0,0 z m -28.152,1.503 -0.141,-0.103 0,-14.232 c 0,-2.153 -0.228,-3.663 -0.672,-4.503 -0.396,-0.79 -1.094,-1.159 -2.137,-1.159 -0.763,0 -1.591,0.291 -2.482,0.89 l -0.291,0.19 -0.166,-0.291 -1.947,-3.358 -0.151,-0.28 0.266,-0.166 c 1.475,-0.878 3.078,-1.336 4.771,-1.336 2.264,0 4.108,0.827 5.481,2.428 0.703,0.813 1.197,1.82 1.502,2.991 0.279,1.016 0.433,2.519 0.433,4.58 l 0,17.492 -0.523,-0.37 -3.943,-2.773 z m 56.343,2.748 -9.589,-9.832 0,10.227 -0.512,-0.37 -3.93,-2.761 -0.14,-0.1 0,-24.081 0.521,0.355 3.932,2.772 0.129,0.102 0,8.053 0.466,0.46 9.159,-11.322 0.179,-0.23 0.256,0.165 3.369,2.279 0.293,0.202 -0.228,0.281 -9.754,11.755 11.572,11.587 0.549,0.561 -6.168,0 -0.104,-0.103 z m 56.93,-12.15 0,8.284 1.397,0 c 3.627,0 5.433,-1.339 5.433,-4.008 0,-2.85 -1.857,-4.276 -5.586,-4.276 l -1.244,0 z m 5.111,-3.245 c 1.577,0.447 2.887,1.3 3.893,2.56 1.109,1.374 1.654,3.053 1.654,4.961 0,2.442 -0.89,4.454 -2.646,5.951 -1.594,1.336 -4.16,2.026 -7.672,2.026 l -4.936,0 0,-27.02 0.51,0.355 3.944,2.772 0.142,0.102 0,7.736 0.213,0 7.34,-10.536 0.193,-0.265 0.266,0.191 3.154,2.279 0.252,0.19 -0.176,0.264 -6.131,8.434 z m 57.143,-4.541 c -0.914,-0.81 -1.947,-1.423 -3.064,-1.791 -1.133,-0.37 -2.571,-0.548 -4.299,-0.548 l -1.451,0 0,18.024 1.451,0 c 3.256,0 5.736,-0.775 7.39,-2.289 1.83,-1.718 2.756,-3.967 2.756,-6.715 0,-2.735 -0.926,-4.973 -2.783,-6.681 m 3.271,16.589 c -1.363,1.236 -2.9,2.125 -4.568,2.649 -1.553,0.531 -3.662,0.801 -6.308,0.801 l -5.79,0 0,-26.715 5.723,0 c 2.662,0 4.762,0.241 6.234,0.737 1.567,0.496 3.092,1.386 4.532,2.645 2.859,2.534 4.312,5.877 4.312,9.975 0,4.058 -1.388,7.403 -4.135,9.908 M -49.6,-15.761 c -1.818,-1.818 -4.07,-2.733 -6.705,-2.733 -2.404,0 -4.58,0.903 -6.424,2.697 -1.87,1.779 -2.81,4.083 -2.81,6.867 0,2.633 0.915,4.887 2.708,6.681 1.795,1.82 4.034,2.748 6.643,2.748 2.62,0 4.846,-0.928 6.616,-2.748 1.793,-1.808 2.693,-4.084 2.693,-6.755 0,-2.633 -0.916,-4.911 -2.721,-6.757 m -6.537,20.599 c -3.831,0 -7.163,-1.365 -9.884,-4.048 -2.748,-2.684 -4.137,-5.941 -4.137,-9.679 0,-4.249 1.526,-7.748 4.531,-10.381 2.721,-2.368 5.849,-3.575 9.284,-3.575 3.87,0 7.228,1.362 9.962,4.032 2.735,2.659 4.121,5.941 4.121,9.769 0,3.793 -1.375,7.101 -4.095,9.798 -2.708,2.71 -5.993,4.084 -9.782,4.084 M 40.709,0 l 5.99,0 0,-22.666 0.51,0.355 3.932,2.772 0.14,0.102 0,19.437 5.979,0 0,4.354 -16.551,0 0,-4.354 z m 78.35,0 0.087,0.092 3.625,3.701 0.549,0.561 -15.484,0 0,-26.715 11.31,0 0.092,0.089 3.549,3.702 0.52,0.546 -10.891,0 0,8.295 3.359,0 0.09,0.1 3.678,3.688 0.543,0.56 -7.67,0 0,5.381 6.643,0 z M -182,0.499 c 1.688,0 3.355,-0.484 4.985,-1.438 l 0.282,-0.165 0.151,0.279 1.91,3.294 0.164,0.279 -0.279,0.167 c -2.228,1.283 -4.57,1.933 -6.937,1.933 -4.375,0 -7.986,-1.639 -10.734,-4.883 -2.239,-2.66 -3.372,-5.713 -3.372,-9.098 0,-3.763 1.362,-7.048 4.021,-9.717 2.697,-2.647 5.978,-3.995 9.783,-3.995 2.516,0 4.949,0.663 7.239,1.958 l 0.162,0.103 0,0.266 -0.036,0.075 -1.921,3.323 -0.166,0.29 -0.289,-0.191 c -0.535,-0.343 -1.061,-0.622 -1.542,-0.825 -0.931,-0.434 -2.073,-0.648 -3.411,-0.648 -2.567,0 -4.768,0.915 -6.55,2.723 -1.771,1.803 -2.672,4.057 -2.672,6.691 0,2.669 0.901,4.961 2.672,6.791 1.769,1.86 3.969,2.788 6.54,2.788 m 30.059,-16.184 c -0.904,-0.81 -1.933,-1.423 -3.068,-1.791 -1.117,-0.37 -2.566,-0.548 -4.286,-0.548 l -1.448,0 0,18.024 1.448,0 c 3.247,0 5.737,-0.775 7.376,-2.289 1.848,-1.718 2.764,-3.967 2.764,-6.715 0,-2.735 -0.928,-4.973 -2.786,-6.681 m -1.285,19.238 c -1.551,0.531 -3.676,0.801 -6.31,0.801 l -5.786,0 0,-26.715 5.723,0 c 2.658,0 4.743,0.241 6.221,0.737 1.565,0.496 3.101,1.386 4.539,2.645 2.851,2.534 4.313,5.877 4.313,9.975 0,4.058 -1.4,7.403 -4.146,9.908 -1.361,1.236 -2.888,2.125 -4.554,2.649 m 63.529,-11.452 0,0.269 0,7.63 0,0.385 1.413,0 c 3.612,0 5.431,-1.339 5.431,-4.008 0,-2.85 -1.869,-4.276 -5.585,-4.276 l -1.259,0 z m 5.114,-3.245 c 1.578,0.447 2.889,1.3 3.893,2.56 1.106,1.374 1.655,3.053 1.655,4.961 0,2.442 -0.892,4.454 -2.648,5.951 -1.576,1.336 -4.16,2.026 -7.671,2.026 l -4.924,0 0,-27.02 0.497,0.355 3.945,2.772 0.139,0.102 0,7.736 0.217,0 7.353,-10.536 0.178,-0.265 0.266,0.191 3.155,2.279 0.267,0.19 -0.19,0.264 -6.132,8.434 z m -29.41,3.245 -1.259,0 0,8.284 1.411,0 c 3.612,0 5.433,-1.339 5.433,-4.008 0,-2.85 -1.871,-4.276 -5.585,-4.276 m 3.981,11.783 c -1.133,0.303 -2.824,0.47 -5.025,0.47 l -4.783,0 0,-27.02 0.507,0.355 3.931,2.772 0.142,0.102 0,7.645 1.5,0 c 2.774,0 5.025,0.739 6.677,2.178 1.668,1.462 2.507,3.446 2.507,5.915 0,2.314 -0.789,4.248 -2.339,5.775 -0.893,0.877 -1.935,1.488 -3.117,1.808"
             style="fill:#000000;fill-opacity:1;fill-rule:nonzero;stroke:none"
             id="path30"
             inkscape:connector-curvature="0" /></g><g
           id="g32"
           transform="translate(519.1719,221.8145)"><path
             d="m 0,0 -1.432,0 0,-1.892 1.432,0 c 0.463,0 0.967,0.372 0.967,0.923 C 0.967,-0.372 0.463,0 0,0 m 0.883,-4.689 -1.391,2.113 -0.924,0 0,-2.113 -0.748,0 0,5.351 2.18,0 c 0.904,0 1.74,-0.636 1.74,-1.631 0,-1.187 -1.056,-1.584 -1.363,-1.584 l 1.432,-2.136 -0.926,0 z m -1.279,6.654 c -2.206,0 -3.965,-1.743 -3.965,-3.969 0,-2.18 1.759,-3.964 3.965,-3.964 2.205,0 3.964,1.784 3.964,3.964 0,2.226 -1.759,3.969 -3.964,3.969 m 0,-8.639 c -2.577,0 -4.67,2.097 -4.67,4.67 0,2.6 2.093,4.671 4.67,4.671 2.599,0 4.671,-2.071 4.671,-4.671 0,-2.573 -2.072,-4.67 -4.671,-4.67"
             style="fill:#000000;fill-opacity:1;fill-rule:nonzero;stroke:none"
             id="path34"
             inkscape:connector-curvature="0" /></g></g></g></g></svg>